<?xml version="1.0" standalone="no"?>
<!DOCTYPE svg PUBLIC "-//W3C//DTD SVG 1.1//EN" "http://www.w3.org/Graphics/SVG/1.1/DTD/svg11.dtd" >
<svg xmlns="http://www.w3.org/2000/svg">
<metadata></metadata>
<defs>
<font id="adelleregular" horiz-adv-x="1591" >
<font-face units-per-em="2048" ascent="1546" descent="-502" />
<missing-glyph horiz-adv-x="454" />
<glyph horiz-adv-x="2048" />
<glyph horiz-adv-x="2048" />
<glyph unicode="&#xd;" horiz-adv-x="682" />
<glyph unicode=" "  horiz-adv-x="454" />
<glyph unicode="&#x09;" horiz-adv-x="454" />
<glyph unicode="&#xa0;" horiz-adv-x="454" />
<glyph unicode="!" horiz-adv-x="536" d="M135 104q0 129 135.5 129t135.5 -129t-135.5 -129t-135.5 129zM164 1143v340h207v-340l-25 -760h-153z" />
<glyph unicode="&#x22;" horiz-adv-x="745" d="M119 915v531h184v-531h-184zM442 915v531h185v-531h-185z" />
<glyph unicode="#" horiz-adv-x="1243" d="M70 285l30 135h228l47 303h-236l29 137h227l37 252h150l-39 -252h243l39 252h148l-39 -252h235l-26 -137h-230l-43 -303h232l-27 -135h-225l-43 -285h-148l43 285h-247l-43 -285h-148l41 285h-235zM475 420h248l43 303h-244z" />
<glyph unicode="$" horiz-adv-x="1071" d="M86 76v286h135l33 -141q4 -23 12 -33t33 -18q68 -27 172 -33v436q-82 23 -130 43.5t-105.5 58.5t-85 99.5t-27.5 147.5q0 160 95 250t253 110v152h145v-148q143 -6 326 -65v-312l-137 15l-33 157q-4 23 -12 32t-29 15q-45 14 -115 19v-440q78 -25 127.5 -45.5 t104.5 -59.5t82.5 -99.5t27.5 -142.5q0 -152 -90 -239.5t-252 -112.5v-172h-145v164q-238 6 -385 76zM297 948q0 -76 45 -121t129 -75v387q-174 -37 -174 -191zM616 147q164 39 164 191q0 74 -42 117t-122 73v-381z" />
<glyph unicode="%" horiz-adv-x="1771" d="M92 887q0 174 88 278.5t254 104.5q326 0 326 -357q0 -176 -88 -281.5t-254 -105.5q-170 0 -248 101.5t-78 259.5zM254 899q0 -248 172 -248q94 0 133 65.5t39 188.5q0 238 -168 238q-94 0 -135 -70t-41 -174zM408 -35l772 1307h176l-770 -1307h-178zM1012 336 q0 174 89 278.5t255 104.5q324 0 323 -357q0 -176 -88 -281.5t-252 -105.5q-172 0 -249.5 101.5t-77.5 259.5zM1176 348q0 -248 170 -248q96 0 134 65.5t38 188.5q0 238 -166 238q-94 0 -135 -70t-41 -174z" />
<glyph unicode="&#x26;" horiz-adv-x="1452" d="M72 387q0 162 91 272.5t265 157.5q-106 129 -106 258q0 145 96 225t248 80q88 0 179 -23.5t134 -47.5v-277l-137 6l-25 140q-6 29 -31 36q-41 16 -114 17q-86 0 -129 -37t-43 -102q0 -68 33.5 -125.5t136.5 -180.5l276 -327q57 166 70 334h268v-109l-92 -16 q-18 -4 -26.5 -10.5t-10.5 -26.5q-29 -174 -88 -299l145 -172q20 -23 54 -31l112 -18v-111h-256l-157 190q-174 -215 -455 -215q-199 0 -318.5 112t-119.5 300zM254 391q0 -109 69.5 -185.5t206.5 -76.5q201 0 326 180l-332 389q-125 -25 -197.5 -101.5t-72.5 -205.5z" />
<glyph unicode="'" horiz-adv-x="421" d="M119 915v531h184v-531h-184z" />
<glyph unicode="(" horiz-adv-x="614" d="M111 573q0 465 321 920l141 -86q-137 -221 -202.5 -415.5t-65.5 -416.5q0 -129 18.5 -241.5t59.5 -218t77 -177t99 -182.5l-145 -80q-303 448 -303 897z" />
<glyph unicode=")" horiz-adv-x="614" d="M45 1407l141 86q317 -449 318 -915q0 -449 -307 -902l-144 82q127 215 192.5 398.5t65.5 423.5q0 221 -65.5 411.5t-200.5 415.5z" />
<glyph unicode="*" horiz-adv-x="964" d="M90 1214l51 146l127 -45l181 -111l-43 209v133h153v-133l-43 -209h-67l-19 -61l53 -45l-98 -187l-86 -106l-119 98l84 103l166 137l-213 26zM483 1098l54 43l-21 63l182 111l125 45l51 -146l-126 -45l-211 -28l163 -135l86 -103l-120 -98l-84 106z" />
<glyph unicode="+" horiz-adv-x="1167" d="M197 575v166h301v308h170v-308h301v-166h-301v-313h-170v313h-301z" />
<glyph unicode="," horiz-adv-x="378" d="M61 57l45 170q113 -4 168.5 -29.5t55.5 -101.5q0 -39 -33 -108l-119 -230l-96 35l61 215q2 14 -10 21z" />
<glyph unicode="-" horiz-adv-x="636" d="M41 506v182h555v-182h-555z" />
<glyph unicode="." horiz-adv-x="434" d="M82 104q0 129 135 129t135 -129t-135 -129t-135 129z" />
<glyph unicode="/" horiz-adv-x="772" d="M14 -188l576 1734h168l-574 -1734h-170z" />
<glyph unicode="0" horiz-adv-x="1175" d="M88 582q0 102 15.5 190t52.5 168t94 135t147 88t205 33q141 0 239.5 -45t150.5 -130t73.5 -184.5t21.5 -228.5q0 -633 -505 -633q-145 0 -245.5 46.5t-153 133.5t-74 189.5t-21.5 237.5zM283 571q0 -215 68.5 -329.5t236.5 -114.5q166 0 235.5 119t69.5 348 q0 225 -64.5 334.5t-230.5 109.5q-170 0 -242.5 -115.5t-72.5 -351.5z" />
<glyph unicode="1" horiz-adv-x="747" d="M61 0v113l207 12q20 2 26.5 9t6.5 32v805q0 35 -29 43l-194 37l14 114h395v-999q0 -25 5.5 -32t27.5 -9l180 -14v-111h-639z" />
<glyph unicode="2" horiz-adv-x="976" d="M39 854q0 104 35 176t98.5 105.5t128 47t148.5 13.5q406 0 405 -324q0 -94 -52 -191t-95 -143t-154 -151l-27 -27l-233 -221h426q27 0 31 23l30 174h135v-336h-860v127l281 274q201 195 248 254q84 106 84 199q0 195 -230 195q-123 0 -174 -43t-51 -170z" />
<glyph unicode="3" horiz-adv-x="999" d="M14 6l111 119q135 -139 330 -139q264 0 264 237q0 233 -281 234q-68 0 -145 -15v144l119 12q135 12 204.5 78.5t69.5 173.5q0 199 -219 199q-121 0 -176 -45.5t-55 -167.5l-175 18q0 342 416 342q205 0 301 -88t96 -238q0 -244 -235 -325v-8q270 -49 270 -318 q0 -182 -118.5 -285.5t-333.5 -103.5q-141 0 -258 48t-185 128z" />
<glyph unicode="4" horiz-adv-x="1052" d="M51 162v135l471 885l152 -80l-422 -789h399v416l174 10v-426h187v-151h-187v-299h-176v299h-598z" />
<glyph unicode="5" horiz-adv-x="1048" d="M31 4l112 125q135 -141 346 -141q117 0 199 71.5t82 216.5q0 139 -73.5 201t-174.5 62q-133 0 -256 -99l-135 60l43 665h543q27 0 31 23l28 110l115 9v-295h-569l-27 -400q113 78 264 78q188 0 295 -106.5t107 -300.5q0 -201 -123 -327t-342 -126q-301 0 -465 174z" />
<glyph unicode="6" horiz-adv-x="1083" d="M104 649q0 117 23 223.5t76 215t161.5 174t262.5 65.5q352 0 352 -301l-176 -20q0 102 -43 140t-142 38q-313 0 -327 -492q147 119 340 119q182 0 274 -102.5t92 -280.5q0 -209 -116.5 -331t-327.5 -122q-109 0 -189.5 37t-130 97.5t-79 150.5t-40 182t-10.5 207z M297 545q12 -424 268 -424q121 0 183.5 75.5t62.5 213.5q0 133 -49 197.5t-164 64.5q-145 0 -301 -127z" />
<glyph unicode="7" horiz-adv-x="1015" d="M92 795v370h907v-133q-188 -188 -326 -506.5t-161 -662.5h-188q16 199 66 384t121 328.5t138.5 248t141.5 188.5h-502q-27 0 -31 -23l-37 -186z" />
<glyph unicode="8" horiz-adv-x="1042" d="M82 315q0 203 246 379q-193 113 -193 303q0 156 113.5 243t283.5 87q184 0 287 -85t103 -220q0 -174 -201 -340q113 -66 176.5 -144.5t63.5 -197.5q0 -176 -128 -270.5t-331 -94.5q-193 0 -306.5 88t-113.5 252zM256 328q0 -98 72.5 -154.5t195.5 -56.5q113 0 182.5 59.5 t69.5 151.5q0 47 -19.5 88t-41 66.5t-73.5 56t-81 44.5l-98 44q-207 -150 -207 -299zM317 1016q0 -49 19.5 -88t63.5 -72t81 -53.5t105 -52.5q162 143 162 264q0 172 -220 172q-92 0 -151.5 -45t-59.5 -125z" />
<glyph unicode="9" horiz-adv-x="1132" d="M117 750q0 207 116.5 326.5t329.5 119.5q111 0 193 -37t131 -96t78.5 -149.5t40 -181.5t10.5 -206q0 -696 -490 -696q-250 0 -389 133l92 131q127 -111 293 -110q297 0 307 471q-141 -121 -340 -121q-182 0 -277 108.5t-95 307.5zM303 762q0 -287 217 -287q164 0 301 133 q-4 72 -8 116t-20.5 113.5t-43 110.5t-77.5 72t-123 31q-121 0 -183.5 -76t-62.5 -213z" />
<glyph unicode=":" horiz-adv-x="434" d="M82 104q0 129 135 129t135 -129t-135 -129t-135 129zM82 911q0 129 135 129t135 -129t-135 -129t-135 129z" />
<glyph unicode=";" horiz-adv-x="378" d="M61 57l45 170q113 -4 168.5 -29.5t55.5 -101.5q0 -39 -33 -108l-119 -230l-96 35l61 215q2 14 -10 21zM74 911q0 129 135 129t135 -129t-135 -129t-135 129z" />
<glyph unicode="&#x3c;" horiz-adv-x="1167" d="M170 489v205l762 316l55 -156l-647 -256l653 -248l-49 -157z" />
<glyph unicode="=" horiz-adv-x="1167" d="M201 326v170h766v-170h-766zM201 657v170h766v-170h-766z" />
<glyph unicode="&#x3e;" horiz-adv-x="1167" d="M170 350l653 248l-647 256l55 156l760 -316v-205l-772 -296z" />
<glyph unicode="?" horiz-adv-x="972" d="M84 1122v287q186 74 373 74q215 0 334.5 -90t119.5 -306q0 -393 -440 -466v-240h-186v362q88 8 156.5 25.5t133 54.5t99.5 103.5t35 158.5q0 113 -68 176.5t-192 63.5q-123 0 -177 -31q-14 -8 -22 -45l-21 -116zM244 104q0 129 135 129t135 -129t-135 -129t-135 129z" />
<glyph unicode="@" horiz-adv-x="1697" d="M106 373q0 356 220 578q221 223 575 223q319 0 506.5 -171.5t187.5 -478.5q0 -279 -108.5 -408.5t-290.5 -129.5q-186 0 -213 151q-78 -74 -140.5 -112.5t-133.5 -38.5q-109 0 -165.5 72.5t-56.5 209.5q0 233 121 394t322 161q141 0 272 -65l-55 -344q-23 -135 -23 -195 q0 -104 95 -104q82 0 134 66.5t70.5 147.5t18.5 169q0 264 -138.5 402t-412.5 138q-289 0 -458 -188t-169 -473q0 -299 158 -447.5t438 -148.5q176 0 350 63l39 -127q-154 -72 -407 -71q-338 0 -537 186.5t-199 540.5zM645 293q0 -84 20.5 -124t74 -40t120 44t115.5 101 l65 400q-47 29 -129 28q-111 0 -188.5 -118.5t-77.5 -290.5z" />
<glyph unicode="A" horiz-adv-x="1460" d="M16 0v109l88 22q41 10 52 39l450 1313h238l459 -1315q8 -25 49 -35l92 -22v-111h-500v111l168 18l-111 324h-571l-108 -324l165 -18v-111h-471zM477 602h479l-237 721z" />
<glyph unicode="B" horiz-adv-x="1366" d="M125 0v111l129 14q20 2 26.5 10t6.5 31v1149q0 25 -6.5 32t-26.5 9l-129 14v113h610q246 0 346.5 -97.5t100.5 -265.5q0 -135 -72 -222t-178 -122v-6q172 -20 259 -115.5t87 -253.5q0 -401 -549 -401h-604zM473 150h234q184 0 279 53t95 211q0 141 -91 206.5t-242 65.5 h-275v-536zM473 829h180q340 0 340 267q0 135 -73.5 186t-235.5 51h-211v-504z" />
<glyph unicode="C" horiz-adv-x="1413" d="M98 741q0 346 189.5 557t546.5 211q285 0 452 -110v-328l-139 8l-35 195q-4 31 -27 37q-131 45 -260 45q-246 0 -388 -160t-142 -455t136 -453.5t380 -158.5q184 0 287 43q25 8 28 37l33 184h131v-309q-164 -109 -491 -109q-358 0 -529.5 205t-171.5 561z" />
<glyph unicode="D" horiz-adv-x="1570" d="M125 0v111l129 14q20 2 26.5 10t6.5 31v1149q0 25 -6.5 32t-26.5 9l-129 14v113h612q375 0 555.5 -187.5t180.5 -531.5q0 -354 -193 -559t-578 -205h-577zM475 150h225q289 0 433.5 153.5t144.5 433.5q0 328 -140.5 463t-424.5 135h-238v-1185z" />
<glyph unicode="E" horiz-adv-x="1300" d="M125 0v111l129 14q20 2 26.5 10t6.5 31v1149q0 25 -6.5 32t-26.5 9l-129 14v113h1028v-338l-139 8l-29 158q-6 27 -35 26h-475v-516h547v-147h-547v-529h520q29 0 33 23l33 178h137v-346h-1073z" />
<glyph unicode="F" horiz-adv-x="1234" d="M125 0v111l129 14q20 2 26.5 10t6.5 31v1149q0 25 -6.5 32t-26.5 9l-129 14v113h1020v-338l-139 8l-29 158q-6 27 -35 26h-467v-510h539v-147h-539v-512q0 -25 5 -32t28 -9l301 -16v-111h-684z" />
<glyph unicode="G" horiz-adv-x="1511" d="M98 752q0 340 189.5 548.5t548.5 208.5q289 0 454 -110v-326l-139 10l-33 191q-6 31 -28 37q-127 45 -267 45q-246 0 -387 -160t-141 -444q0 -303 148.5 -463t437.5 -160q129 0 252 31q29 6 28 35v362h-278l22 133h561v-112l-86 -9q-33 -2 -32 -34v-476 q-174 -84 -492 -84q-393 0 -575.5 209.5t-182.5 567.5z" />
<glyph unicode="H" horiz-adv-x="1654" d="M125 0v111l129 14q20 2 26.5 10t6.5 31v1151q0 25 -6.5 32t-26.5 9l-129 14v111h520v-111l-137 -16q-23 -2 -28 -9.5t-5 -29.5v-479h705v479q0 25 -6.5 32t-26.5 9l-129 14v111h520v-111l-137 -16q-23 -2 -28 -9.5t-5 -29.5v-1149q0 -25 5 -32t28 -9l137 -16v-111h-520 v111l129 14q20 2 26.5 10t6.5 31v524h-705v-522q0 -25 5 -32t28 -9l137 -16v-111h-520z" />
<glyph unicode="I" horiz-adv-x="782" d="M115 0v111l149 14q20 2 26.5 9t6.5 32v1151q0 25 -6 32t-27 9l-149 14v111h561v-111l-158 -16q-23 -2 -28 -9.5t-5 -29.5v-1149q0 -25 5.5 -32t27.5 -9l158 -16v-111h-561z" />
<glyph unicode="J" horiz-adv-x="1032" d="M109 47v283l139 -8l20 -142q2 -18 25 -28q61 -25 141 -25q92 0 127 44t35 142v1006q0 23 -6 30t-27 9l-174 14v111h565v-111l-137 -16q-23 -2 -28 -8.5t-5 -28.5v-1018q0 -168 -80.5 -247t-259.5 -79q-106 0 -201 23.5t-134 48.5z" />
<glyph unicode="K" horiz-adv-x="1505" d="M125 0v111l129 14q20 2 26.5 10t6.5 31v1151q0 25 -6.5 32t-26.5 9l-129 14v111h520v-111l-137 -16q-23 -2 -28 -9.5t-5 -29.5v-586l569 623l-126 16v113h460v-111l-104 -18q-39 -6 -62 -35l-444 -479l504 -676q18 -27 59 -33l125 -20v-111h-532v111l141 16l-430 569 l-160 -174v-354q0 -25 5 -32t28 -9l137 -16v-111h-520z" />
<glyph unicode="L" horiz-adv-x="1267" d="M125 0v111l129 14q20 2 26.5 10t6.5 31v1149q0 25 -6.5 32t-26.5 9l-129 14v113h553v-113l-170 -16q-23 -2 -28 -9.5t-5 -29.5v-1170h520q29 0 33 23l33 184h137v-352h-1073z" />
<glyph unicode="M" horiz-adv-x="1949" d="M125 0v111l129 14q20 2 26.5 10t6.5 31v1149q0 25 -6.5 32t-26.5 9l-129 14v113h397l451 -973l467 973h393v-111l-137 -16q-23 -2 -28 -9.5t-5 -29.5v-1151q0 -35 33 -39l137 -16v-111h-557v111l170 14q20 2 26.5 9t6.5 32v1016l-412 -834h-199l-397 832v-1012 q0 -25 5 -32t28 -9l178 -16v-111h-557z" />
<glyph unicode="N" horiz-adv-x="1695" d="M125 0v111l129 14q20 2 26.5 10t6.5 31v1151q0 25 -6.5 32t-26.5 9l-129 14v113h401l729 -1231v1063q0 25 -6 32t-26 9l-129 14v111h495v-111l-137 -16q-23 -2 -28 -9.5t-5 -29.5v-1317h-219l-747 1239v-1071q0 -25 5 -32t27 -9l138 -16v-111h-498z" />
<glyph unicode="O" d="M102 750q0 338 186.5 548.5t526.5 210.5q334 0 504 -204.5t170 -532.5q0 -371 -179.5 -584t-523.5 -213t-514 209.5t-170 565.5zM297 750q0 -301 134 -459t365.5 -158t364.5 155.5t133 463.5q0 291 -128 445.5t-355 154.5q-231 0 -372.5 -157.5t-141.5 -444.5z" />
<glyph unicode="P" horiz-adv-x="1333" d="M125 0v111l129 14q20 2 26.5 10t6.5 31v1149q0 25 -6.5 32t-26.5 9l-129 14v113h633q264 0 378.5 -120t114.5 -316q0 -487 -561 -488h-217v-391q0 -25 5 -32t28 -9l293 -16v-111h-674zM473 709h201q182 0 282.5 67.5t100.5 261.5q0 158 -87 226.5t-270 68.5h-227v-624z " />
<glyph unicode="Q" d="M102 750q0 338 186.5 548.5t526.5 210.5q334 0 504 -204.5t170 -532.5q0 -342 -152.5 -551t-443.5 -239q-6 -39 -6 -86q0 -66 29.5 -100t99.5 -34q76 0 137 27l41 -125q-84 -47 -207 -47q-150 0 -214 64.5t-64 189.5q0 55 8 109q-307 20 -461 227t-154 543zM297 750 q0 -301 134 -459t365.5 -158t364.5 155.5t133 463.5q0 291 -128 445.5t-353 154.5q-233 0 -374.5 -156.5t-141.5 -445.5z" />
<glyph unicode="R" horiz-adv-x="1392" d="M125 0v111l129 14q20 2 26.5 10t6.5 31v1149q0 25 -6.5 32t-26.5 9l-129 14v113h627q133 0 227 -34t143 -94.5t70.5 -127t21.5 -146.5q0 -297 -284 -399q33 -14 54.5 -37.5t30.5 -44.5l29 -68l140 -358q14 -41 63 -47l125 -18v-109h-526v111l162 12l-170 424 q-20 49 -49 67.5t-91 18.5h-225v-465q0 -25 5 -32t28 -9l135 -16v-111h-516zM473 780h189q166 0 261 64.5t95 230.5q0 150 -92 204t-293 54h-160v-553z" />
<glyph unicode="S" horiz-adv-x="1196" d="M115 53v336h137l39 -180q4 -20 12 -28.5t29 -16.5q104 -35 229 -35q334 0 334 258q0 121 -76 179.5t-225 101.5q-201 59 -268 98q-178 102 -179 326q0 209 143.5 313t371.5 104q193 0 380 -71v-348l-141 12l-31 174q-8 35 -22 43q-61 35 -195 35q-156 0 -234.5 -62.5 t-78.5 -175.5q0 -61 22.5 -105t74.5 -76t94 -48.5t120 -40.5l90 -28q29 -9 85.5 -32.5t84 -43t68.5 -53.5t59.5 -71.5t33.5 -92t15 -117.5q0 -223 -151.5 -328t-390.5 -105q-127 0 -250 25.5t-180 52.5z" />
<glyph unicode="T" horiz-adv-x="1351" d="M61 1137v346h1229v-346h-137l-33 178q-4 23 -33 22h-317v-1169q0 -23 5 -30t28 -9l225 -16v-113h-690v113l211 14q20 2 26.5 9t6.5 32v1169h-318q-29 0 -33 -22l-32 -178h-138z" />
<glyph unicode="U" horiz-adv-x="1613" d="M106 1372v111h521v-111l-138 -16q-23 -2 -27.5 -9.5t-4.5 -29.5v-795q0 -205 87 -296t267 -91q186 0 272 86t86 295v801q0 25 -6 32t-26 9l-129 14v111h508v-111l-138 -16q-23 -2 -27.5 -9.5t-4.5 -29.5v-821q0 -520 -547 -521q-281 0 -406 130.5t-125 394.5v817 q0 25 -6 32t-26 9z" />
<glyph unicode="V" horiz-adv-x="1419" d="M18 1372l21 111h479v-111l-168 -18l375 -1192l383 1192l-166 18l21 111h446v-111l-86 -22q-41 -10 -51 -39l-422 -1311h-254l-436 1315q-8 25 -49 35z" />
<glyph unicode="W" horiz-adv-x="2033" d="M18 1372l21 111h514v-111l-182 -20l274 -1149l279 981h211l278 -998l289 1166l-186 20l20 111h479v-111l-106 -18q-23 -4 -31 -11.5t-14 -29.5l-330 -1313h-248l-258 950l-274 -950h-234l-340 1313q-8 33 -41 39z" />
<glyph unicode="X" horiz-adv-x="1431" d="M45 0v106l109 23q31 8 51 39l393 577l-385 570q-16 27 -49 35l-96 22l20 111h469v-111l-154 -18l314 -477l323 477l-151 18l20 111h426v-111l-90 -22q-29 -6 -51 -39l-375 -547l418 -596q16 -27 49 -35l107 -22v-111h-508v111l155 18l-342 504l-336 -504l150 -18v-111 h-467z" />
<glyph unicode="Y" horiz-adv-x="1267" d="M2 1372l21 111h458v-111l-153 -18l325 -613l316 613l-152 18l21 111h428v-111l-86 -22q-37 -10 -52 -39l-387 -731v-412q0 -25 5.5 -32t27.5 -9l205 -16v-111h-653v111l194 14q20 2 26.5 9t6.5 32v407l-410 742q-14 27 -49 35z" />
<glyph unicode="Z" horiz-adv-x="1318" d="M102 0v125l852 1212h-614q-29 0 -33 -22l-39 -191l-139 -6v365h1055v-129l-846 -1209h655q29 0 33 23l39 219h139v-387h-1102z" />
<glyph unicode="[" horiz-adv-x="536" d="M127 -293v1776h346v-109l-137 -18q-20 -2 -26.5 -9.5t-6.5 -29.5v-1440q0 -23 6 -31t27 -10l137 -18v-111h-346z" />
<glyph unicode="\" horiz-adv-x="772" d="M27 1546h168l575 -1734h-170z" />
<glyph unicode="]" horiz-adv-x="536" d="M61 -182l138 18q20 2 26 10.5t6 30.5v1440q0 23 -6 30t-26 9l-138 18v109h347v-1776h-347v111z" />
<glyph unicode="^" horiz-adv-x="1126" d="M61 612l404 748h190l410 -748h-184l-324 584l-317 -584h-179z" />
<glyph unicode="_" horiz-adv-x="1024" d="M0 -231h1024v-140h-1024v140z" />
<glyph unicode="`" horiz-adv-x="1024" d="M276 1450l125 123l316 -336l-80 -76z" />
<glyph unicode="a" horiz-adv-x="1107" d="M94 256q0 152 92.5 228.5t280.5 93.5l276 22v109q0 121 -39.5 172t-166.5 51q-57 0 -88 -3t-65 -17.5t-49.5 -48.5t-15.5 -89l-176 19q0 280 393 280h3q221 0 305 -76.5t84 -287.5v-543q0 -25 5 -32t28 -9l104 -14v-111h-287l-18 133l-6 2q-170 -160 -371 -160 q-90 0 -151.5 28t-89 75t-38 89t-10.5 89zM287 276.5q0 -81.5 34.5 -118.5t108.5 -37q145 0 313 158v192l-231 -20q-129 -12 -177 -52.5t-48 -122z" />
<glyph unicode="b" horiz-adv-x="1218" d="M49 1438l19 108h315v-592q186 119 350 119q180 0 283.5 -124t103.5 -384q0 -303 -114.5 -446.5t-317.5 -143.5q-184 0 -317 127l-6 -4l-11 -98h-182q25 152 25 293v1063q0 35 -27 43zM383 262q141 -133 281 -133q268 0 268 420q0 190 -66.5 279.5t-181.5 89.5 q-141 0 -301 -115v-541z" />
<glyph unicode="c" horiz-adv-x="995" d="M82 514q0 281 145.5 420t390.5 139q184 0 312 -63v-273l-137 6l-25 136q-2 23 -25 28q-51 18 -139 19q-147 0 -237.5 -96.5t-90.5 -303.5q0 -397 334 -397q152 0 262 68l60 -136q-131 -86 -350 -86q-254 0 -377 142.5t-123 396.5z" />
<glyph unicode="d" horiz-adv-x="1216" d="M98 504q0 289 117 429t311 140q176 0 314 -98v383q0 33 -27 41l-123 39l19 108h313v-1380q0 -25 5 -32t28 -9l104 -14v-111h-289l-16 135l-8 2q-170 -162 -361 -162q-387 1 -387 529zM287 508q0 -377 239 -377q139 0 310 170v508q-133 111 -281 111q-268 0 -268 -412z " />
<glyph unicode="e" horiz-adv-x="1046" d="M82 524q0 268 131 408.5t336 140.5q422 0 422 -489q0 -33 -4 -103h-688q10 -348 313 -348q145 0 295 74l59 -139q-164 -92 -373 -93q-262 0 -376.5 149.5t-114.5 399.5zM281 623h503q-6 301 -235 301q-245 0 -268 -301z" />
<glyph unicode="f" horiz-adv-x="831" d="M82 0v113l131 12q20 2 26.5 9t6.5 32v725q0 20 -17 20h-147v142h164v155q0 360 375 361q145 0 226 -52.5t81 -191.5l-174 -25q0 78 -33 104t-109 26q-106 0 -143 -52.5t-37 -163.5v-141q0 -20 17 -20h335v-142h-352v-741q0 -25 5 -32t28 -9l240 -18v-111h-623z" />
<glyph unicode="g" horiz-adv-x="1114" d="M66 -209q0 68 29.5 116t94.5 116q-90 29 -90 110q0 45 45 113q18 27 59.5 80t53.5 67q-154 84 -154 291q0 174 119 281.5t326 107.5q111 0 182 -20h365v-131l-193 -15q76 -94 76 -213q0 -176 -120 -276.5t-306 -100.5q-111 0 -174 25l-92 -178l252 -14 q131 -8 199.5 -14.5t145.5 -24t110.5 -46t56 -76.5t22.5 -120q0 -156 -134 -243t-396 -87q-254 0 -365.5 64.5t-111.5 187.5zM250 -180q0 -78 75.5 -106.5t239.5 -30.5q317 0 318 172q0 66 -47.5 86t-165.5 30l-330 19q-90 -94 -90 -170zM297 690q0 -98 61.5 -158.5 t188.5 -60.5q115 0 182.5 62.5t67.5 168.5q0 104 -64.5 163t-179.5 59q-117 0 -186.5 -59.5t-69.5 -174.5z" />
<glyph unicode="h" horiz-adv-x="1290" d="M72 1438l18 108h316v-608q188 135 368 135q315 0 316 -373v-534q0 -25 5 -32t27 -9l117 -14v-111h-471v113l98 12q37 2 37 41v477q0 131 -36 201.5t-136 70.5q-156 0 -323 -133v-616q0 -25 5 -32t27 -9l115 -14v-111h-469v113l102 12q20 2 26.5 10t6.5 31v1190 q0 35 -26 43z" />
<glyph unicode="i" horiz-adv-x="608" d="M53 0v113l135 12q20 2 26.5 9t6.5 32v696q0 35 -26 43l-117 39l18 109h312v-887q0 -25 5 -32t27 -9l131 -14v-111h-518zM154 1411q0 61 34.5 95t98 34t97.5 -33.5t34 -95.5q0 -131 -131 -131q-63 0 -98 34t-35 97z" />
<glyph unicode="j" horiz-adv-x="581" d="M-178 -371l74 121q78 -59 184 -59q78 0 107.5 49t29.5 164v958q0 35 -27 43l-131 39l19 109h325v-1186q0 -164 -72.5 -244t-221.5 -80q-88 0 -167 25.5t-120 60.5zM154 1411q0 61 34.5 95t96.5 34q63 0 98 -33.5t35 -95.5q0 -63 -35 -97t-98 -34q-61 0 -96 34t-35 97z " />
<glyph unicode="k" horiz-adv-x="1210" d="M61 0v113l127 12q20 2 26.5 9t6.5 32v1190q0 35 -26 43l-123 39l18 108h318v-985l434 492h227v-111l-117 -24q-29 -4 -51 -31l-186 -209l311 -516q16 -25 59 -33l107 -18v-111h-485v111l129 16l-256 424l-172 -193v-192q0 -25 5 -32t27 -9l123 -14v-111h-502z" />
<glyph unicode="l" horiz-adv-x="608" d="M61 0v113l127 12q20 2 26.5 9t6.5 32v1190q0 35 -26 43l-123 39l18 108h318v-1380q0 -25 5 -32t27 -9l123 -14v-111h-502z" />
<glyph unicode="m" horiz-adv-x="1867" d="M78 944l18 109h269l16 -121l6 -2q92 72 174 107.5t189 35.5q182 0 251 -131q180 131 363 131q168 0 235.5 -95t67.5 -286v-526q0 -25 5 -32t28 -9l117 -14v-111h-471v113l98 12q37 2 37 41v493q0 252 -174 252q-129 0 -271 -100q6 -55 6 -125v-520q0 -25 5.5 -32t27.5 -9 l101 -14v-111h-455v113l98 12q37 2 37 41v496q0 55 -4 89.5t-18.5 76.5t-47 62.5t-86.5 20.5q-137 0 -292 -127v-618q0 -25 5 -32t27 -9l111 -14v-111h-465v113l102 12q20 2 26.5 10t6.5 31v696q0 35 -26 43z" />
<glyph unicode="n" horiz-adv-x="1290" d="M78 944l18 109h269l16 -121l6 -2q201 143 379 143q324 0 324 -375v-532q0 -25 5 -32t27 -9l117 -14v-111h-471v113l98 12q37 2 37 41v485q0 119 -37 190.5t-141 71.5q-158 0 -317 -131v-616q0 -25 5 -32t27 -9l115 -14v-111h-469v113l102 12q20 2 26.5 10t6.5 31v696 q0 35 -26 43z" />
<glyph unicode="o" horiz-adv-x="1163" d="M82 530q0 250 130 396.5t384 146.5q250 0 367.5 -142.5t117.5 -387.5q0 -268 -126 -418t-380 -150q-256 0 -374.5 148.5t-118.5 406.5zM274 528q0 -403 307.5 -403t307.5 405q0 199 -74 293.5t-223 94.5q-318 -1 -318 -390z" />
<glyph unicode="p" horiz-adv-x="1239" d="M76 944l18 109h271l18 -119l6 -2q190 141 367 141q180 0 282.5 -124t102.5 -384q0 -121 -22.5 -222t-70 -186t-132.5 -133.5t-201 -48.5q-182 0 -312 113v-354q0 -25 5.5 -32t27.5 -9l193 -17v-110h-529v112l84 13q23 4 29 11t6 30v1130q0 35 -26 43zM403 262 q137 -133 281 -133q268 0 268 420q0 366 -234 366h-1q-154 0 -314 -127v-526z" />
<glyph unicode="q" horiz-adv-x="1193" d="M98 502q0 287 117 429t307 142q180 0 320 -106l22 86h176q-20 -174 -20 -285v-1036q0 -23 6 -31t27 -10l104 -13v-112h-502v110l154 15q23 2 29 9t6 32v399l-6 2q-166 -158 -346 -158q-394 1 -394 527zM287 510q0 -205 61.5 -292t175.5 -87q150 0 310 180v498 q-51 45 -128 78t-153 33q-266 0 -266 -410z" />
<glyph unicode="r" horiz-adv-x="886" d="M78 944l18 109h269l20 -142l6 -2q145 164 307 164q82 0 148 -18v-310l-146 7l-24 141q-2 20 -25 20q-109 0 -243 -129v-616q0 -25 5 -32t27 -9l189 -16v-111h-543v113l102 12q20 2 26.5 10t6.5 31v696q0 35 -26 43z" />
<glyph unicode="s" horiz-adv-x="942" d="M84 45v272l137 -8l25 -141q4 -20 24 -29q83 -32 194 -32h7q225 0 225 161q0 35 -14 63.5t-33.5 45t-57.5 32t-64.5 22.5t-77.5 20q-66 14 -100 23t-88 33.5t-80.5 53.5t-49 78t-22.5 115q0 164 115.5 241.5t291.5 77.5q190 0 324 -57v-264l-138 8l-24 127q-4 23 -21 26 q-63 23 -159 23q-109 0 -163 -42t-54 -112q0 -33 14 -58.5t29.5 -39.5t56.5 -30.5t58.5 -21.5t74.5 -20q14 -4 23 -6q78 -20 123 -36.5t101 -50.5t82.5 -90t26.5 -134q0 -166 -117.5 -243t-297.5 -77q-113 0 -224.5 25t-146.5 45z" />
<glyph unicode="t" horiz-adv-x="843" d="M51 911v119q119 14 165 74.5t67 218.5h120v-250q0 -20 17 -20h301v-142h-318v-604q0 -98 31 -138t117 -40q90 0 190 41l45 -131q-160 -63 -284 -64q-285 0 -285 277v639q0 20 -16 20h-150z" />
<glyph unicode="u" horiz-adv-x="1284" d="M76 942l16 111h309v-662q0 -141 34 -202.5t126 -61.5q174 0 330 178v565q0 25 -5 33t-28 12l-102 27l16 111h305v-885q0 -41 29 -43l108 -14v-111h-288l-17 139l-4 2q-197 -166 -395 -166q-162 0 -228.5 93.5t-66.5 279.5v520q0 27 -5 35t-28 12z" />
<glyph unicode="v" horiz-adv-x="1185" d="M16 940l25 113h430v-113l-141 -16l276 -764l281 764l-137 16l22 113h397v-113l-67 -12q-41 -8 -51 -35l-344 -893h-213l-347 887q-10 27 -43 35z" />
<glyph unicode="w" horiz-adv-x="1720" d="M16 940l25 113h412v-113l-131 -16l229 -736l235 834h215l199 -832l227 734l-133 16l23 113h387v-113l-74 -12q-25 -4 -35 -12.5t-16 -28.5l-276 -887h-220l-196 811l-225 -811h-226l-289 887q-8 27 -43 35z" />
<glyph unicode="x" horiz-adv-x="1175" d="M23 0v111l108 20q23 4 49 33l291 362l-278 357q-25 27 -50 35l-90 22l21 113h430v-113l-127 -16l217 -279l225 279l-129 16l21 113h397v-113l-94 -20q-27 -8 -51 -39l-271 -334l297 -379q27 -33 53 -37l113 -20v-111h-485v111l127 18l-228 297l-235 -297l135 -18v-111 h-446z" />
<glyph unicode="y" horiz-adv-x="1191" d="M16 940l25 113h424v-113l-135 -16l272 -688l285 688l-139 16l22 113h406v-113l-70 -10q-39 -6 -51 -35l-498 -1198l199 -21v-110h-555v112l147 19q27 2 45 43l119 272l-369 873q-10 27 -43 35z" />
<glyph unicode="z" horiz-adv-x="999" d="M80 0v111l612 804h-405q-18 0 -23 -26l-24 -129l-140 -8v301h820v-115l-609 -801h432q18 0 23 27l25 151l141 7v-322h-852z" />
<glyph unicode="{" horiz-adv-x="593" d="M25 530v121q84 4 129 41t45 139q0 68 -13.5 207.5t-13.5 192.5q0 135 77 189.5t265 68.5l21 -119q-106 -23 -141.5 -48.5t-35.5 -98.5q0 -51 13.5 -186.5t13.5 -207.5q0 -109 -37 -161t-102 -78q66 -27 102.5 -78t36.5 -160q0 -70 -13.5 -203t-13.5 -184q0 -74 35 -99.5 t142 -47.5l-21 -119q-188 14 -265 68.5t-77 189.5q0 55 13.5 190.5t13.5 202.5q0 102 -45 139t-129 41z" />
<glyph unicode="|" horiz-adv-x="573" d="M203 -293v1839h168v-1839h-168z" />
<glyph unicode="}" horiz-adv-x="593" d="M59 -182q106 23 141.5 48t35.5 99q0 51 -13.5 184.5t-13.5 202.5q0 109 37 160t102 78q-66 27 -102.5 79t-36.5 160q0 72 13.5 207t13.5 187q0 74 -35 99.5t-142 47.5l21 119q188 -14 265 -68.5t77 -189.5q0 -53 -13.5 -192.5t-13.5 -207.5q0 -102 45 -139t129 -41v-121 q-84 -4 -129 -40.5t-45 -139.5q0 -68 13.5 -203t13.5 -190q0 -135 -77 -189.5t-265 -68.5z" />
<glyph unicode="~" horiz-adv-x="987" d="M39 637q43 104 97 160.5t140 56.5q80 0 236 -47t219 -47q47 0 68.5 24.5t44.5 85.5l110 -36q-27 -115 -70.5 -172.5t-131.5 -57.5q-78 0 -242 47t-221 47q-47 0 -78 -24.5t-68 -83.5z" />
<glyph unicode="&#xa1;" horiz-adv-x="536" d="M147 938q0 129 135.5 129t135.5 -129t-135.5 -129t-135.5 129zM176 -100l29 759h153l25 -759v-340h-207v340z" />
<glyph unicode="&#xa2;" horiz-adv-x="1017" d="M113 573q0 223 106.5 350.5t290.5 157.5v211h145v-202q160 -8 281 -64v-268l-129 6l-23 129q-6 27 -24 33q-45 14 -105 16v-731q78 6 111 16q18 6 20 31l25 133l129 6v-268q-117 -55 -285 -63v-203h-145v209q-397 52 -397 501zM309 586q0 -301 201 -363v705 q-201 -59 -201 -342z" />
<glyph unicode="&#xa3;" horiz-adv-x="1130" d="M68 608v146h163v129q0 444 441 444q162 0 258 -64.5t96 -236.5l-172 -25q0 100 -42 136.5t-142 36.5q-129 0 -189.5 -72t-60.5 -230v-118h371v-146h-371q0 -133 -5 -193.5t-34 -136t-92 -139.5h538q27 0 31 23l33 174h135v-336h-924l-26 121q109 84 132 169t23 290v28 h-163z" />
<glyph unicode="&#xa4;" horiz-adv-x="1167" d="M6 135l191 191q-61 117 -62 254q0 119 66 239l-189 187l125 124l180 -178q113 84 277 84t276 -80l172 172l119 -120l-180 -181q59 -109 59 -239q0 -150 -71 -264l190 -189l-127 -121l-184 181q-106 -74 -266 -74q-164 0 -275 78l-184 -185zM326 580q0 -135 65.5 -218 t200.5 -83q123 0 191.5 85t68.5 216q0 139 -67.5 216.5t-198.5 77.5q-125 0 -192.5 -80.5t-67.5 -213.5z" />
<glyph unicode="&#xa5;" horiz-adv-x="1089" d="M-25 1178l21 110h446v-110l-145 -19l262 -411l262 411l-143 19l20 110h416v-110l-86 -23q-31 -8 -51 -39l-254 -387h199v-127h-273v-117h273v-127h-273v-190q0 -25 5 -32t28 -9l203 -16v-111h-652v111l183 14q31 2 38 11t7 32v190h-271v127h271v117h-271v127h191 l-262 387q-20 31 -51 39z" />
<glyph unicode="&#xa6;" horiz-adv-x="573" d="M203 -293v795h168v-795h-168zM203 836v710h168v-710h-168z" />
<glyph unicode="&#xa7;" horiz-adv-x="1122" d="M156 489q0 166 151 275q-102 78 -102 215q0 154 110.5 230.5t280.5 76.5q190 0 324 -57v-264l-138 8l-22 129q-2 20 -27 28q-57 20 -153 21q-104 0 -153.5 -43t-49.5 -113q0 -33 16.5 -59.5t33.5 -41.5t61 -32.5t67 -23.5l82 -23q78 -20 122 -37.5t99 -51.5t82 -89 t27 -133q0 -158 -152 -266q102 -74 103 -201q0 -172 -111 -250t-281 -78q-104 0 -216.5 24.5t-145.5 45.5v260l137 -8l25 -131q4 -20 22 -27q86 -33 191 -33q205 0 204 164q0 43 -19 74t-57 50t-78 32.5t-95 27.5q-23 6 -33 9q-70 18 -114 35.5t-93 50t-73.5 83.5t-24.5 123 zM322 526q0 -72 49 -108.5t147 -65.5q92 -27 170 -53q109 66 109 188q0 66 -46 102t-133 60q-25 8 -90 25.5t-96 27.5q-49 -31 -79.5 -80t-30.5 -96z" />
<glyph unicode="&#xa8;" horiz-adv-x="1024" d="M188 1351.5q0 51.5 32 82t83 30.5q53 0 84 -30.5t31 -82t-32 -82t-83 -30.5t-83 30.5t-32 82zM602 1351.5q0 51.5 31 82t84 30.5t83.5 -30.5t30.5 -82t-31.5 -82t-82.5 -30.5t-83 30.5t-32 82z" />
<glyph unicode="&#xa9;" horiz-adv-x="1560" d="M100 625q0 311 196 494.5t488 183.5q311 0 493.5 -176.5t182.5 -473.5q0 -305 -188.5 -492.5t-491.5 -187.5q-326 0 -503 181.5t-177 470.5zM223 627q0 -256 149.5 -402.5t411.5 -146.5q258 0 407.5 151.5t149.5 411.5q0 264 -153.5 410.5t-403.5 146.5 q-248 0 -404.5 -152.5t-156.5 -418.5zM420 645q0 180 101.5 288.5t289.5 108.5q121 0 229 -41v-215l-90 5l-18 100q-2 18 -19 27q-47 20 -118 20q-104 0 -169 -71.5t-65 -225.5q0 -131 60.5 -212t187.5 -81q72 0 106 23q12 8 19 30l24 99h80v-205q-84 -49 -233 -49 q-199 0 -292 107.5t-93 291.5z" />
<glyph unicode="&#xaa;" horiz-adv-x="768" d="M68 745q0 104 60 150.5t191 56.5l173 15v67q0 70 -24 99.5t-97 29.5q-45 0 -68.5 -4t-41 -26.5t-17.5 -65.5l-146 14q0 188 277 189q152 0 211 -50.5t59 -185.5v-338q0 -16 4 -20t19 -6l65 -11v-84h-213l-12 78l-6 2q-111 -96 -240 -96q-194 0 -194 186zM225 758 q0 -80 88 -80q96 0 179 82v108l-132 -12q-78 -8 -106.5 -28.5t-28.5 -69.5z" />
<glyph unicode="&#xab;" horiz-adv-x="888" d="M117 530l182 306h168l-154 -281q-12 -20 -2 -39l152 -305h-168zM436 530l182 306h168l-153 -281q-12 -20 -2 -39l151 -305h-168z" />
<glyph unicode="&#xac;" horiz-adv-x="1167" d="M193 584v166h772v-359h-166v193h-606z" />
<glyph unicode="&#xad;" horiz-adv-x="636" d="M41 506v182h555v-182h-555z" />
<glyph unicode="&#xae;" horiz-adv-x="919" d="M82 969q0 172 108.5 275.5t270.5 103.5q172 0 274.5 -99.5t102.5 -265.5q0 -168 -105.5 -272.5t-273.5 -104.5q-180 0 -278.5 101.5t-98.5 261.5zM170 971q0 -133 78 -209t213 -76t213 78t78 213q0 139 -80 215t-211 76q-127 0 -209 -80t-82 -217zM293 786v43l29 5 q14 2 14 12v270q0 14 -12 17l-31 4v41h180q133 0 133 -111q0 -80 -76 -106q16 -4 35 -39l41 -74q4 -10 17 -12l34 -7v-43h-168v43l39 7l-43 82q-12 23 -41 22h-28v-94q0 -10 8 -12l33 -5v-43h-164zM416 1001h26q84 0 84 62q0 53 -71 53h-39v-115z" />
<glyph unicode="&#xaf;" horiz-adv-x="1024" d="M197 1251v142h628v-142h-628z" />
<glyph unicode="&#xb0;" horiz-adv-x="616" d="M94 1358q0 100 61.5 158.5t153.5 58.5q94 0 153.5 -55.5t59.5 -153.5q0 -100 -58 -157.5t-155 -57.5q-98 0 -156.5 56.5t-58.5 150.5zM205 1358q0 -49 27.5 -78t76.5 -29t76 31t27 84q0 51 -28 80t-75 29t-75.5 -30t-28.5 -87z" />
<glyph unicode="&#xb1;" horiz-adv-x="1167" d="M197 0v164h772v-164h-772zM197 575v166h301v308h170v-308h301v-166h-301v-305h-170v305h-301z" />
<glyph unicode="&#xb2;" horiz-adv-x="735" d="M55 717v102l262 309l92 116q26 34 46 78t20 85q0 109 -135 109q-66 0 -95.5 -29t-29.5 -101l-147 17q0 236 286 235q291 0 291 -219q0 -82 -40 -152.5t-120 -164.5l-229 -273h270q14 0 21 15l18 106h121v-233h-631z" />
<glyph unicode="&#xb3;" horiz-adv-x="743" d="M31 819l92 105q92 -92 215 -93q166 0 166 150q0 143 -170 143q-47 0 -94 -8v119l73 8q174 18 174 156q0 117 -135 117q-66 0 -95.5 -29t-29.5 -98l-153 16q0 127 83 180t205 53q293 0 293 -223q0 -82 -43 -137t-114 -78v-6q178 -39 178 -221q0 -129 -91 -201t-239 -72 q-202 0 -315 119z" />
<glyph unicode="&#xb4;" horiz-adv-x="1024" d="M293 1237l317 336l123 -123l-360 -289z" />
<glyph unicode="&#xb5;" horiz-adv-x="1288" d="M205 -360v1413h186v-686q0 -117 38 -182.5t146 -65.5q141 0 308 186v748h186v-885q0 -41 27 -43l110 -14v-111h-291l-16 135l-8 2q-90 -86 -157.5 -124t-149.5 -38q-137 0 -201 88h-6l18 -423h-190z" />
<glyph unicode="&#xb6;" horiz-adv-x="1150" d="M31 817q0 260 157.5 382t409.5 122h502v-111l-137 -16q-23 -2 -28 -9t-5 -30v-1268q0 -14 3 -20t9 -8t21 -4l137 -17v-110h-322v1458h-170v-1458h-313v110l137 17q27 2 27 32v461q-203 16 -315.5 140t-112.5 329z" />
<glyph unicode="&#xb7;" horiz-adv-x="397" d="M63 631q0 129 135.5 129t135.5 -129t-135.5 -129t-135.5 129z" />
<glyph unicode="&#xb8;" horiz-adv-x="1024" d="M289 -475l12 106q31 -6 64 -6q150 0 149 111q0 90 -143 92l30 233l119 -16l-18 -135q66 -14 108.5 -56t42.5 -112q0 -92 -67.5 -158.5t-208.5 -66.5q-57 0 -88 8z" />
<glyph unicode="&#xb9;" horiz-adv-x="534" d="M51 717v96l121 12q14 2 17.5 6.5t3.5 20.5v618q0 23 -19 29l-123 23l12 96h302v-766q0 -16 3 -20.5t17 -6.5l119 -12v-96h-453z" />
<glyph unicode="&#xba;" horiz-adv-x="804" d="M59 918q0 162 89.5 257t263.5 95q172 0 252.5 -92.5t80.5 -249.5q0 -174 -86 -271.5t-260 -97.5t-257 96.5t-83 262.5zM219 918q0 -250 184 -250q180 0 181 250q0 240 -174 239q-191 1 -191 -239z" />
<glyph unicode="&#xbb;" horiz-adv-x="886" d="M102 211l152 291q12 20 2 39l-154 295h168l181 -314l-181 -311h-168zM422 211l151 291q12 20 2 39l-153 295h168l180 -314l-180 -311h-168z" />
<glyph unicode="&#xbc;" horiz-adv-x="1822" d="M143 575v97l121 12q14 2 17.5 6t3.5 21v618q0 23 -19 29l-123 22l13 97h301v-766q0 -16 3 -20.5t17 -6.5l119 -12v-97h-453zM442 -35l734 1518h172l-732 -1518h-174zM997 172v129l371 596h195v-594h114v-133h-116v-170h-158v172h-406zM1153 303h250v410z" />
<glyph unicode="&#xbd;" horiz-adv-x="1822" d="M135 575v97l121 12q14 2 17 6t3 21v618q0 23 -18 29l-123 22l12 97h302v-766q0 -16 3 -20.5t17 -6.5l119 -12v-97h-453zM381 -35l733 1518h172l-731 -1518h-174zM1055 0v102l262 310l91 115q26 34 46.5 78t20.5 85q0 109 -136 109q-66 0 -95.5 -29t-29.5 -100l-147 16 q0 236 287 236q291 0 291 -220q0 -82 -40 -152.5t-120 -164.5l-230 -272h271q14 0 20 14l19 106h121v-233h-631z" />
<glyph unicode="&#xbe;" horiz-adv-x="1822" d="M80 678l92 104q92 -92 215 -92q166 0 166 150q0 143 -170 143q-47 0 -94 -8v119l73 8q174 18 175 155q0 117 -136 117q-66 0 -95.5 -28.5t-29.5 -98.5l-153 17q0 127 83 180t206 53q293 0 293 -223q0 -82 -43.5 -137.5t-114.5 -77.5v-6q178 -39 178 -222 q0 -129 -91 -200.5t-239 -71.5q-202 0 -315 119zM512 -35l733 1518h172l-731 -1518h-174zM1063 172v129l371 596h194v-594h115v-133h-117v-170h-158v172h-405zM1219 303h249v410z" />
<glyph unicode="&#xbf;" horiz-adv-x="972" d="M82 -45q0 393 440 467v240h187v-363q-88 -8 -157 -25.5t-133.5 -54.5t-99 -103.5t-34.5 -158.5q0 -113 67.5 -176.5t192.5 -63.5q123 0 176 31q14 8 22 45l21 117l145 10v-287q-186 -74 -372 -73q-215 0 -335 90t-120 305zM479 938q0 129 135.5 129t135.5 -129 t-135.5 -129t-135.5 129z" />
<glyph unicode="&#xc0;" horiz-adv-x="1460" d="M16 0v109l88 22q41 10 52 39l450 1313h238l459 -1315q8 -25 49 -35l92 -22v-111h-500v111l168 18l-111 324h-571l-108 -324l165 -18v-111h-471zM463 1776l94 149l385 -262l-61 -96zM477 602h479l-237 721z" />
<glyph unicode="&#xc1;" horiz-adv-x="1460" d="M16 0v109l88 22q41 10 52 39l450 1313h238l459 -1315q8 -25 49 -35l92 -22v-111h-500v111l168 18l-111 324h-571l-108 -324l165 -18v-111h-471zM477 602h479l-237 721zM518 1663l385 264l92 -151l-417 -207z" />
<glyph unicode="&#xc2;" horiz-adv-x="1460" d="M16 0v109l88 22q41 10 52 39l450 1313h238l459 -1315q8 -25 49 -35l92 -22v-111h-500v111l168 18l-111 324h-571l-108 -324l165 -18v-111h-471zM399 1653l240 209h172l240 -209l-82 -84l-244 170l-244 -170zM477 602h479l-237 721z" />
<glyph unicode="&#xc3;" horiz-adv-x="1460" d="M16 0v109l88 22q41 10 52 39l450 1313h238l459 -1315q8 -25 49 -35l92 -22v-111h-500v111l168 18l-111 324h-571l-108 -324l165 -18v-111h-471zM369 1657l59 90q55 86 123 86q25 0 86 -14q236 -61 254 -66q18 -6 31 6l73 76l90 -59l-47 -72q-68 -102 -131 -102 q-39 0 -88 14q-41 10 -134 35.5t-118 31.5q-20 2 -32 -10l-80 -78zM477 602h479l-237 721z" />
<glyph unicode="&#xc4;" horiz-adv-x="1460" d="M16 0v109l88 22q41 10 52 39l450 1313h238l459 -1315q8 -25 49 -35l92 -22v-111h-500v111l168 18l-111 324h-571l-108 -324l165 -18v-111h-471zM403 1714q0 51 32 81t83 30q53 0 84 -30t31 -81t-31 -81.5t-84 -30.5q-51 0 -83 30.5t-32 81.5zM477 602h479l-237 721z M817 1714q0 51 31 81t84 30t84 -30t31 -81t-31 -81.5t-84 -30.5t-84 30.5t-31 81.5z" />
<glyph unicode="&#xc5;" horiz-adv-x="1460" d="M16 0v109l88 22q41 10 52 39l446 1300q-82 53 -82 162q0 94 57.5 147.5t145.5 53.5q90 0 146.5 -50t56.5 -145q0 -113 -80 -163l457 -1307q8 -25 49 -35l92 -22v-111h-500v111l168 18l-111 324h-571l-108 -324l165 -18v-111h-471zM477 602h479l-237 721zM635 1634 q0 -90 88 -90q86 0 86 94q0 90 -86 91q-88 -1 -88 -95z" />
<glyph unicode="&#xc6;" horiz-adv-x="2041" d="M16 0v111l76 18q35 8 49.5 22.5t38.5 59.5l619 1143l-156 16v113h1268v-338l-139 8l-29 158q-4 27 -27 26h-483v-534h547v-146h-547v-512h520q29 0 33 23l33 178h137v-346h-1069v111l135 12q27 2 27 35v499h-449l-289 -528l150 -18v-111h-445zM674 809h375v528h-84z" />
<glyph unicode="&#xc7;" horiz-adv-x="1413" d="M98 741q0 346 189.5 557t546.5 211q285 0 452 -110v-328l-139 8l-35 195q-4 31 -27 37q-131 45 -260 45q-246 0 -388 -160t-142 -455t136 -453.5t380 -158.5q184 0 287 43q25 8 28 37l33 184h131v-309q-152 -102 -461 -109l-8 -65q66 -14 109 -56t43 -112 q0 -92 -67.5 -158.5t-207.5 -66.5q-57 0 -90 8l15 106q29 -6 61 -6q150 0 150 111q0 90 -144 92l21 152q-313 25 -463 226t-150 535z" />
<glyph unicode="&#xc8;" horiz-adv-x="1300" d="M125 0v111l129 14q20 2 26.5 10t6.5 31v1149q0 25 -6.5 32t-26.5 9l-129 14v113h1028v-338l-139 8l-29 158q-6 27 -35 26h-475v-516h547v-147h-547v-529h520q29 0 33 23l33 178h137v-346h-1073zM393 1776l94 149l385 -262l-61 -96z" />
<glyph unicode="&#xc9;" horiz-adv-x="1300" d="M125 0v111l129 14q20 2 26.5 10t6.5 31v1149q0 25 -6.5 32t-26.5 9l-129 14v113h1028v-338l-139 8l-29 158q-6 27 -35 26h-475v-516h547v-147h-547v-529h520q29 0 33 23l33 178h137v-346h-1073zM449 1663l385 264l92 -151l-418 -207z" />
<glyph unicode="&#xca;" horiz-adv-x="1300" d="M125 0v111l129 14q20 2 26.5 10t6.5 31v1149q0 25 -6.5 32t-26.5 9l-129 14v113h1028v-338l-139 8l-29 158q-6 27 -35 26h-475v-516h547v-147h-547v-529h520q29 0 33 23l33 178h137v-346h-1073zM330 1653l239 209h172l240 -209l-82 -84l-244 170l-243 -170z" />
<glyph unicode="&#xcb;" horiz-adv-x="1300" d="M125 0v111l129 14q20 2 26.5 10t6.5 31v1149q0 25 -6.5 32t-26.5 9l-129 14v113h1028v-338l-139 8l-29 158q-6 27 -35 26h-475v-516h547v-147h-547v-529h520q29 0 33 23l33 178h137v-346h-1073zM334 1714q0 51 31.5 81t83.5 30q53 0 83.5 -30t30.5 -81t-30.5 -81.5 t-83.5 -30.5q-51 0 -83 30.5t-32 81.5zM748 1714q0 51 30.5 81t83.5 30t84 -30t31 -81t-31 -81.5t-84 -30.5t-83.5 30.5t-30.5 81.5z" />
<glyph unicode="&#xcc;" horiz-adv-x="782" d="M115 0v111l149 14q20 2 26.5 9t6.5 32v1151q0 25 -6 32t-27 9l-149 14v111h561v-111l-158 -16q-23 -2 -28 -9.5t-5 -29.5v-1149q0 -25 5.5 -32t27.5 -9l158 -16v-111h-561zM133 1776l94 149l385 -262l-61 -96z" />
<glyph unicode="&#xcd;" horiz-adv-x="782" d="M115 0v111l149 14q20 2 26.5 9t6.5 32v1151q0 25 -6 32t-27 9l-149 14v111h561v-111l-158 -16q-23 -2 -28 -9.5t-5 -29.5v-1149q0 -25 5.5 -32t27.5 -9l158 -16v-111h-561zM188 1663l385 264l93 -151l-418 -207z" />
<glyph unicode="&#xce;" horiz-adv-x="782" d="M70 1653l239 209h172l240 -209l-82 -84l-244 170l-243 -170zM115 0v111l149 14q20 2 26.5 9t6.5 32v1151q0 25 -6 32t-27 9l-149 14v111h561v-111l-158 -16q-23 -2 -28 -9.5t-5 -29.5v-1149q0 -25 5.5 -32t27.5 -9l158 -16v-111h-561z" />
<glyph unicode="&#xcf;" horiz-adv-x="782" d="M74 1714q0 51 31.5 81t82.5 30q53 0 84 -30t31 -81t-30.5 -81.5t-84.5 -30.5q-51 0 -82.5 30.5t-31.5 81.5zM115 0v111l149 14q20 2 26.5 9t6.5 32v1151q0 25 -6 32t-27 9l-149 14v111h561v-111l-158 -16q-23 -2 -28 -9.5t-5 -29.5v-1149q0 -25 5.5 -32t27.5 -9l158 -16 v-111h-561zM487 1714q0 51 31 81t84 30t84 -30t31 -81t-31 -81.5t-84 -30.5t-84 30.5t-31 81.5z" />
<glyph unicode="&#xd0;" d="M145 0v111l129 14q20 2 26.5 10t6.5 31v512h-153v147h153v490q0 25 -6 32t-27 9l-129 14v113h613q375 0 555 -187.5t180 -531.5q0 -354 -192.5 -559t-577.5 -205h-578zM496 150h225q289 0 433 153.5t144 433.5q0 328 -140 463t-425 135h-237v-510h368v-147h-368v-528z " />
<glyph unicode="&#xd1;" horiz-adv-x="1695" d="M125 0v111l129 14q20 2 26.5 10t6.5 31v1151q0 25 -6.5 32t-26.5 9l-129 14v113h401l729 -1231v1063q0 25 -6 32t-26 9l-129 14v111h495v-111l-137 -16q-23 -2 -28 -9.5t-5 -29.5v-1317h-219l-747 1239v-1071q0 -25 5 -32t27 -9l138 -16v-111h-498zM526 1657l60 90 q55 86 123 86q25 0 86 -14q236 -61 254 -66q18 -6 30 6l74 76l90 -59l-47 -72q-68 -102 -131 -102q-39 0 -88 14q-41 10 -134 35.5t-118 31.5q-20 2 -33 -10l-80 -78z" />
<glyph unicode="&#xd2;" d="M102 750q0 338 186.5 548.5t526.5 210.5q334 0 504 -204.5t170 -532.5q0 -371 -179.5 -584t-523.5 -213t-514 209.5t-170 565.5zM297 750q0 -301 134 -459t365.5 -158t364.5 155.5t133 463.5q0 291 -128 445.5t-355 154.5q-231 0 -372.5 -157.5t-141.5 -444.5zM549 1778 l94 149l385 -262l-61 -96z" />
<glyph unicode="&#xd3;" d="M102 750q0 338 186.5 548.5t526.5 210.5q334 0 504 -204.5t170 -532.5q0 -371 -179.5 -584t-523.5 -213t-514 209.5t-170 565.5zM297 750q0 -301 134 -459t365.5 -158t364.5 155.5t133 463.5q0 291 -128 445.5t-355 154.5q-231 0 -372.5 -157.5t-141.5 -444.5zM604 1665 l385 264l92 -151l-417 -207z" />
<glyph unicode="&#xd4;" d="M102 750q0 338 186.5 548.5t526.5 210.5q334 0 504 -204.5t170 -532.5q0 -371 -179.5 -584t-523.5 -213t-514 209.5t-170 565.5zM297 750q0 -301 134 -459t365.5 -158t364.5 155.5t133 463.5q0 291 -128 445.5t-355 154.5q-231 0 -372.5 -157.5t-141.5 -444.5zM485 1655 l240 209h172l240 -209l-82 -84l-244 170l-244 -170z" />
<glyph unicode="&#xd5;" d="M102 750q0 338 186.5 548.5t526.5 210.5q334 0 504 -204.5t170 -532.5q0 -371 -179.5 -584t-523.5 -213t-514 209.5t-170 565.5zM297 750q0 -301 134 -459t365.5 -158t364.5 155.5t133 463.5q0 291 -128 445.5t-355 154.5q-231 0 -372.5 -157.5t-141.5 -444.5zM455 1659 l59 90q55 86 123 86q25 0 86 -14q236 -61 254 -66q18 -6 31 6l73 76l90 -59l-47 -72q-68 -102 -131 -102q-39 0 -88 14q-41 10 -134 35.5t-118 32.5q-20 2 -32 -11l-80 -78z" />
<glyph unicode="&#xd6;" d="M102 750q0 338 186.5 548.5t526.5 210.5q334 0 504 -204.5t170 -532.5q0 -371 -179.5 -584t-523.5 -213t-514 209.5t-170 565.5zM297 750q0 -301 134 -459t365.5 -158t364.5 155.5t133 463.5q0 291 -128 445.5t-355 154.5q-231 0 -372.5 -157.5t-141.5 -444.5zM489 1716 q0 51 32 81t83 30q53 0 84 -30t31 -81t-31 -81.5t-84 -30.5q-51 0 -83 30.5t-32 81.5zM903 1716q0 51 31 81t84 30t84 -30t31 -81t-31 -81.5t-84 -30.5t-84 30.5t-31 81.5z" />
<glyph unicode="&#xd7;" horiz-adv-x="1167" d="M248 438l217 217l-217 219l121 121l213 -217l217 217l119 -121l-216 -219l216 -217l-119 -119l-217 218l-213 -218z" />
<glyph unicode="&#xd8;" d="M102 750q0 338 186.5 548.5t526.5 210.5q100 0 205 -24l55 131h178l-82 -193q158 -90 238 -260t80 -391q0 -371 -179.5 -584t-523.5 -213q-100 0 -208 25l-66 -160h-180l92 219q-322 183 -322 691zM297 750q0 -367 197 -523l462 1106q-68 18 -145 19 q-231 0 -372.5 -157.5t-141.5 -444.5zM643 154q68 -20 154 -21q231 0 364 155.5t133 463.5q0 354 -190 505z" />
<glyph unicode="&#xd9;" horiz-adv-x="1613" d="M106 1372v111h521v-111l-138 -16q-23 -2 -27.5 -9.5t-4.5 -29.5v-795q0 -205 87 -296t267 -91q186 0 272 86t86 295v801q0 25 -6 32t-26 9l-129 14v111h508v-111l-138 -16q-23 -2 -27.5 -9.5t-4.5 -29.5v-821q0 -520 -547 -521q-281 0 -406 130.5t-125 394.5v817 q0 25 -6 32t-26 9zM559 1776l94 149l385 -262l-61 -96z" />
<glyph unicode="&#xda;" horiz-adv-x="1613" d="M106 1372v111h521v-111l-138 -16q-23 -2 -27.5 -9.5t-4.5 -29.5v-795q0 -205 87 -296t267 -91q186 0 272 86t86 295v801q0 25 -6 32t-26 9l-129 14v111h508v-111l-138 -16q-23 -2 -27.5 -9.5t-4.5 -29.5v-821q0 -520 -547 -521q-281 0 -406 130.5t-125 394.5v817 q0 25 -6 32t-26 9zM614 1663l385 264l93 -151l-418 -207z" />
<glyph unicode="&#xdb;" horiz-adv-x="1613" d="M106 1372v111h521v-111l-138 -16q-23 -2 -27.5 -9.5t-4.5 -29.5v-795q0 -205 87 -296t267 -91q186 0 272 86t86 295v801q0 25 -6 32t-26 9l-129 14v111h508v-111l-138 -16q-23 -2 -27.5 -9.5t-4.5 -29.5v-821q0 -520 -547 -521q-281 0 -406 130.5t-125 394.5v817 q0 25 -6 32t-26 9zM496 1653l239 209h172l240 -209l-82 -84l-244 170l-243 -170z" />
<glyph unicode="&#xdc;" horiz-adv-x="1613" d="M106 1372v111h521v-111l-138 -16q-23 -2 -27.5 -9.5t-4.5 -29.5v-795q0 -205 87 -296t267 -91q186 0 272 86t86 295v801q0 25 -6 32t-26 9l-129 14v111h508v-111l-138 -16q-23 -2 -27.5 -9.5t-4.5 -29.5v-821q0 -520 -547 -521q-281 0 -406 130.5t-125 394.5v817 q0 25 -6 32t-26 9zM500 1714q0 51 31.5 81t82.5 30q53 0 84 -30t31 -81t-30.5 -81.5t-84.5 -30.5q-51 0 -82.5 30.5t-31.5 81.5zM913 1714q0 51 31 81t84 30t84 -30t31 -81t-31 -81.5t-84 -30.5t-84 30.5t-31 81.5z" />
<glyph unicode="&#xdd;" horiz-adv-x="1267" d="M2 1372l21 111h458v-111l-153 -18l325 -613l316 613l-152 18l21 111h428v-111l-86 -22q-37 -10 -52 -39l-387 -731v-412q0 -25 5.5 -32t27.5 -9l205 -16v-111h-653v111l194 14q20 2 26.5 9t6.5 32v407l-410 742q-14 27 -49 35zM446 1663l385 264l93 -151l-418 -207z" />
<glyph unicode="&#xde;" horiz-adv-x="1349" d="M125 0v111l129 14q20 2 26.5 10t6.5 31v1149q0 25 -6.5 32t-26.5 9l-129 14v113h534v-111l-153 -16q-20 -2 -26.5 -10.5t-6.5 -30.5v-88h285q494 0 493 -414q0 -475 -561 -475h-217v-170q0 -25 5 -32t28 -9l293 -16v-111h-674zM473 485h201q178 0 280.5 69t102.5 251 q0 154 -86 214t-271 60h-227v-594z" />
<glyph unicode="&#xdf;" horiz-adv-x="1288" d="M55 0v113l127 12q20 2 26.5 9t6.5 32v964q0 440 463 441q440 0 440 -371q0 -254 -225 -348v-8q162 -37 236.5 -127t74.5 -289t-108.5 -325t-298.5 -126q-182 0 -310 74l52 127q121 -57 237 -57q111 0 172.5 77.5t61.5 227.5q0 330 -291 330q-96 0 -150 -6v143l119 12 q117 12 178.5 90t61.5 191q0 125 -60.5 181t-193.5 56q-139 0 -206 -65.5t-67 -243.5v-1114h-346z" />
<glyph unicode="&#xe0;" horiz-adv-x="1107" d="M94 256q0 152 92.5 228.5t280.5 93.5l276 22v109q0 121 -39.5 172t-166.5 51q-57 0 -88 -3t-65 -17.5t-49.5 -48.5t-15.5 -89l-176 19q0 281 396 280q221 0 305 -76.5t84 -287.5v-543q0 -25 5 -32t28 -9l104 -14v-111h-287l-18 133l-6 2q-170 -160 -371 -160 q-90 0 -151.5 28t-89 75t-38 89t-10.5 89zM287 276.5q0 -81.5 34.5 -118.5t108.5 -37q145 0 313 158v192l-231 -20q-129 -12 -177 -52.5t-48 -122zM289 1450l125 123l315 -336l-80 -76z" />
<glyph unicode="&#xe1;" horiz-adv-x="1107" d="M94 256q0 152 92.5 228.5t280.5 93.5l276 22v109q0 121 -39.5 172t-166.5 51q-57 0 -88 -3t-65 -17.5t-49.5 -48.5t-15.5 -89l-176 19q0 281 396 280q221 0 305 -76.5t84 -287.5v-543q0 -25 5 -32t28 -9l104 -14v-111h-287l-18 133l-6 2q-170 -160 -371 -160 q-90 0 -151.5 28t-89 75t-38 89t-10.5 89zM287 276.5q0 -81.5 34.5 -118.5t108.5 -37q145 0 313 158v192l-231 -20q-129 -12 -177 -52.5t-48 -122zM336 1237l317 336l123 -123l-360 -289z" />
<glyph unicode="&#xe2;" horiz-adv-x="1107" d="M94 256q0 152 92.5 228.5t280.5 93.5l276 22v109q0 121 -39.5 172t-166.5 51q-57 0 -88 -3t-65 -17.5t-49.5 -48.5t-15.5 -89l-176 19q0 281 396 280q221 0 305 -76.5t84 -287.5v-543q0 -25 5 -32t28 -9l104 -14v-111h-287l-18 133l-6 2q-170 -160 -371 -160 q-90 0 -151.5 28t-89 75t-38 89t-10.5 89zM193 1249l260 252h172l260 -252l-90 -78l-256 207l-256 -207zM287 276.5q0 -81.5 34.5 -118.5t108.5 -37q145 0 313 158v192l-231 -20q-129 -12 -177 -52.5t-48 -122z" />
<glyph unicode="&#xe3;" horiz-adv-x="1107" d="M94 256q0 152 92.5 228.5t280.5 93.5l276 22v109q0 121 -39.5 172t-166.5 51q-57 0 -88 -3t-65 -17.5t-49.5 -48.5t-15.5 -89l-176 19q0 281 396 280q221 0 305 -76.5t84 -287.5v-543q0 -25 5 -32t28 -9l104 -14v-111h-287l-18 133l-6 2q-170 -160 -371 -160 q-90 0 -151.5 28t-89 75t-38 89t-10.5 89zM182 1260l60 90q55 86 123 86q25 0 86 -15q236 -61 254 -65q18 -6 30 6l74 76l90 -60l-47 -71q-68 -102 -131 -103q-39 0 -88 15q-41 10 -134 35.5t-118 31.5q-20 2 -33 -10l-80 -78zM287 276.5q0 -81.5 34.5 -118.5t108.5 -37 q145 0 313 158v192l-231 -20q-129 -12 -177 -52.5t-48 -122z" />
<glyph unicode="&#xe4;" horiz-adv-x="1107" d="M94 256q0 152 92.5 228.5t280.5 93.5l276 22v109q0 121 -39.5 172t-166.5 51q-57 0 -88 -3t-65 -17.5t-49.5 -48.5t-15.5 -89l-176 19q0 281 396 280q221 0 305 -76.5t84 -287.5v-543q0 -25 5 -32t28 -9l104 -14v-111h-287l-18 133l-6 2q-170 -160 -371 -160 q-90 0 -151.5 28t-89 75t-38 89t-10.5 89zM217 1351.5q0 51.5 32 82t83 30.5q53 0 83.5 -30.5t30.5 -82t-31.5 -82t-82.5 -30.5t-83 30.5t-32 82zM287 276.5q0 -81.5 34.5 -118.5t108.5 -37q145 0 313 158v192l-231 -20q-129 -12 -177 -52.5t-48 -122zM631 1351.5 q0 51.5 30.5 82t84 30.5t84 -30.5t30.5 -82t-31.5 -82t-83 -30.5t-83 30.5t-31.5 82z" />
<glyph unicode="&#xe5;" horiz-adv-x="1107" d="M94 256q0 152 92.5 228.5t280.5 93.5l276 22v109q0 121 -39.5 172t-166.5 51q-57 0 -88 -3t-65 -17.5t-49.5 -48.5t-15.5 -89l-176 19q0 281 396 280q221 0 305 -76.5t84 -287.5v-543q0 -25 5 -32t28 -9l104 -14v-111h-287l-18 133l-6 2q-170 -160 -371 -160 q-90 0 -151.5 28t-89 75t-38 89t-10.5 89zM287 276.5q0 -81.5 34.5 -118.5t108.5 -37q145 0 313 158v192l-231 -20q-129 -12 -177 -52.5t-48 -122zM336 1368q0 94 57.5 147.5t145.5 53.5q90 0 146 -50.5t56 -144.5q0 -92 -55 -145t-147.5 -53t-147.5 52t-55 140zM451 1370 q0 -90 88 -90q86 0 86 94q0 90 -86 90q-88 0 -88 -94z" />
<glyph unicode="&#xe6;" horiz-adv-x="1699" d="M94 256q0 152 93.5 229.5t279.5 94.5l276 22v107q0 121 -39.5 172t-166.5 51q-57 0 -88 -3t-65 -17.5t-49.5 -48.5t-15.5 -89l-176 19q0 281 389 280q141 0 222.5 -37t117.5 -121q123 158 336 158q414 0 414 -483q0 -39 -4 -109h-690q4 -170 78.5 -259t236.5 -89 q141 0 295 74l59 -139q-164 -92 -372 -93q-264 0 -383 175q-217 -174 -447 -175q-301 0 -301 281zM287 274q0 -154 157 -153q80 0 176.5 47t157.5 108q-29 92 -35 195l-231 -18q-127 -10 -176 -52.5t-49 -126.5zM928 623h506q-2 301 -236 301q-113 0 -186.5 -70.5 t-83.5 -230.5z" />
<glyph unicode="&#xe7;" horiz-adv-x="995" d="M82 514q0 281 145.5 420t390.5 139q184 0 312 -63v-273l-137 6l-25 136q-2 23 -25 28q-51 18 -139 19q-147 0 -237.5 -96.5t-90.5 -303.5q0 -397 334 -397q152 0 262 68l60 -136q-119 -80 -332 -86l-8 -65q66 -14 108.5 -56t42.5 -112q0 -92 -67.5 -158.5t-208.5 -66.5 q-57 0 -88 8l12 106q31 -6 64 -6q150 0 149 111q0 90 -143 92l20 154q-203 27 -301 166t-98 366z" />
<glyph unicode="&#xe8;" horiz-adv-x="1046" d="M82 524q0 268 131 408.5t336 140.5q422 0 422 -489q0 -33 -4 -103h-688q10 -348 313 -348q145 0 295 74l59 -139q-164 -92 -373 -93q-262 0 -376.5 149.5t-114.5 399.5zM281 623h503q-6 301 -235 301q-245 0 -268 -301zM295 1450l125 123l315 -336l-80 -76z" />
<glyph unicode="&#xe9;" horiz-adv-x="1046" d="M82 524q0 268 131 408.5t336 140.5q422 0 422 -489q0 -33 -4 -103h-688q10 -348 313 -348q145 0 295 74l59 -139q-164 -92 -373 -93q-262 0 -376.5 149.5t-114.5 399.5zM281 623h503q-6 301 -235 301q-245 0 -268 -301zM342 1237l317 336l123 -123l-360 -289z" />
<glyph unicode="&#xea;" horiz-adv-x="1046" d="M82 524q0 268 131 408.5t336 140.5q422 0 422 -489q0 -33 -4 -103h-688q10 -348 313 -348q145 0 295 74l59 -139q-164 -92 -373 -93q-262 0 -376.5 149.5t-114.5 399.5zM199 1249l260 252h172l260 -252l-90 -78l-256 207l-256 -207zM281 623h503q-6 301 -235 301 q-245 0 -268 -301z" />
<glyph unicode="&#xeb;" horiz-adv-x="1046" d="M82 524q0 268 131 408.5t336 140.5q422 0 422 -489q0 -33 -4 -103h-688q10 -348 313 -348q145 0 295 74l59 -139q-164 -92 -373 -93q-262 0 -376.5 149.5t-114.5 399.5zM223 1351.5q0 51.5 32 82t83 30.5q53 0 84 -30.5t31 -82t-32 -82t-83 -30.5t-83 30.5t-32 82z M281 623h503q-6 301 -235 301q-245 0 -268 -301zM637 1351.5q0 51.5 30.5 82t84 30.5t84 -30.5t30.5 -82t-31.5 -82t-83 -30.5t-83 30.5t-31.5 82z" />
<glyph unicode="&#xec;" horiz-adv-x="608" d="M39 1434l125 122l315 -335l-80 -76zM53 0v113l135 12q20 2 26.5 9t6.5 32v696q0 35 -26 43l-117 39l18 109h312v-887q0 -25 5 -32t27 -9l131 -14v-111h-518z" />
<glyph unicode="&#xed;" horiz-adv-x="608" d="M53 0v113l135 12q20 2 26.5 9t6.5 32v696q0 35 -26 43l-117 39l18 109h312v-887q0 -25 5 -32t27 -9l131 -14v-111h-518zM70 1221l317 335l123 -122l-360 -289z" />
<glyph unicode="&#xee;" horiz-adv-x="608" d="M-49 1249l235 252h172l236 -252l-90 -78l-232 207l-231 -207zM53 0v113l135 12q20 2 26.5 9t6.5 32v696q0 35 -26 43l-117 39l18 109h312v-887q0 -25 5 -32t27 -9l131 -14v-111h-518z" />
<glyph unicode="&#xef;" horiz-adv-x="608" d="M-20 1351.5q0 51.5 31.5 82t82.5 30.5q53 0 84 -30.5t31 -82t-32 -82t-83 -30.5t-82.5 30.5t-31.5 82zM53 0v113l135 12q20 2 26.5 9t6.5 32v696q0 35 -26 43l-117 39l18 109h312v-887q0 -25 5 -32t27 -9l131 -14v-111h-518zM352 1351.5q0 51.5 31 82t84 30.5t84 -30.5 t31 -82t-32 -82t-83 -30.5t-83 30.5t-32 82z" />
<glyph unicode="&#xf0;" horiz-adv-x="1144" d="M84 512q0 223 123 369.5t348 146.5q170 0 291 -80q-61 188 -174 301l-197 -112l-76 123l150 83q-115 66 -264 87l61 141q217 -31 367 -133l213 121l73 -125l-170 -97q231 -246 232 -692q0 -100 -13.5 -191.5t-49 -180.5t-91 -153.5t-144.5 -104.5t-204 -40 q-475 0 -475 537zM276 516q0 -393 285 -393q166 0 241 142.5t75 365.5q0 68 -7 135q-39 47 -120.5 81t-167.5 34q-152 0 -229 -94.5t-77 -270.5z" />
<glyph unicode="&#xf1;" horiz-adv-x="1290" d="M78 944l18 109h269l16 -121l6 -2q201 143 379 143q324 0 324 -375v-532q0 -25 5 -32t27 -9l117 -14v-111h-471v113l98 12q37 2 37 41v485q0 119 -37 190.5t-141 71.5q-158 0 -317 -131v-616q0 -25 5 -32t27 -9l115 -14v-111h-469v113l102 12q20 2 26.5 10t6.5 31v696 q0 35 -26 43zM270 1260l60 90q55 86 123 86q25 0 86 -15q236 -61 254 -65q18 -6 30 6l74 76l90 -60l-47 -71q-68 -102 -131 -103q-39 0 -88 15q-41 10 -134 35.5t-118 31.5q-20 2 -33 -10l-80 -78z" />
<glyph unicode="&#xf2;" horiz-adv-x="1163" d="M82 530q0 250 130 396.5t384 146.5q250 0 367.5 -142.5t117.5 -387.5q0 -268 -126 -418t-380 -150q-256 0 -374.5 148.5t-118.5 406.5zM274 528q0 -403 307.5 -403t307.5 405q0 199 -74 293.5t-223 94.5q-318 -1 -318 -390zM346 1450l125 123l315 -336l-79 -76z" />
<glyph unicode="&#xf3;" horiz-adv-x="1163" d="M82 530q0 250 130 396.5t384 146.5q250 0 367.5 -142.5t117.5 -387.5q0 -268 -126 -418t-380 -150q-256 0 -374.5 148.5t-118.5 406.5zM274 528q0 -403 307.5 -403t307.5 405q0 199 -74 293.5t-223 94.5q-318 -1 -318 -390zM393 1237l318 336l123 -123l-361 -289z" />
<glyph unicode="&#xf4;" horiz-adv-x="1163" d="M82 530q0 250 130 396.5t384 146.5q250 0 367.5 -142.5t117.5 -387.5q0 -268 -126 -418t-380 -150q-256 0 -374.5 148.5t-118.5 406.5zM250 1249l260 252h172l260 -252l-90 -78l-256 207l-256 -207zM274 528q0 -403 307.5 -403t307.5 405q0 199 -74 293.5t-223 94.5 q-318 -1 -318 -390z" />
<glyph unicode="&#xf5;" horiz-adv-x="1163" d="M82 530q0 250 130 396.5t384 146.5q250 0 367.5 -142.5t117.5 -387.5q0 -268 -126 -418t-380 -150q-256 0 -374.5 148.5t-118.5 406.5zM240 1260l59 90q55 86 123 86q25 0 86 -15q236 -61 254 -65q18 -6 31 6l73 76l90 -60l-47 -71q-68 -102 -131 -103q-39 0 -88 15 q-41 10 -134 35.5t-118 31.5q-20 2 -32 -10l-80 -78zM274 528q0 -403 307.5 -403t307.5 405q0 199 -74 293.5t-223 94.5q-318 -1 -318 -390z" />
<glyph unicode="&#xf6;" horiz-adv-x="1163" d="M82 530q0 250 130 396.5t384 146.5q250 0 367.5 -142.5t117.5 -387.5q0 -268 -126 -418t-380 -150q-256 0 -374.5 148.5t-118.5 406.5zM274 528q0 -403 307.5 -403t307.5 405q0 199 -74 293.5t-223 94.5q-318 -1 -318 -390zM274 1351.5q0 51.5 32 82t83 30.5 q53 0 84 -30.5t31 -82t-32 -82t-83 -30.5t-83 30.5t-32 82zM688 1351.5q0 51.5 31 82t84 30.5t84 -30.5t31 -82t-32 -82t-83 -30.5t-83 30.5t-32 82z" />
<glyph unicode="&#xf7;" horiz-adv-x="1167" d="M197 575v164h772v-164h-772zM440 342q0 125 131 125t131 -125q0 -127 -131 -127t-131 127zM440 969q0 125 131 125t131 -125q0 -127 -131 -127t-131 127z" />
<glyph unicode="&#xf8;" horiz-adv-x="1163" d="M82 530q0 250 130 396.5t384 146.5q82 0 139 -14l62 137h176l-88 -199q197 -129 196 -454q0 -268 -126 -418t-380 -150q-66 0 -137 15l-78 -178h-178l105 237q-205 131 -205 481zM274 528q0 -213 86 -315l310 696q-33 8 -78 9q-318 -1 -318 -390zM502 133q33 -8 80 -8 q307 0 307 405q0 203 -78 299z" />
<glyph unicode="&#xf9;" horiz-adv-x="1284" d="M76 942l16 111h309v-662q0 -141 34 -202.5t126 -61.5q174 0 330 178v565q0 25 -5 33t-28 12l-102 27l16 111h305v-885q0 -41 29 -43l108 -14v-111h-288l-17 139l-4 2q-197 -166 -395 -166q-162 0 -228.5 93.5t-66.5 279.5v520q0 27 -5 35t-28 12zM371 1450l125 123 l315 -336l-80 -76z" />
<glyph unicode="&#xfa;" horiz-adv-x="1284" d="M76 942l16 111h309v-662q0 -141 34 -202.5t126 -61.5q174 0 330 178v565q0 25 -5 33t-28 12l-102 27l16 111h305v-885q0 -41 29 -43l108 -14v-111h-288l-17 139l-4 2q-197 -166 -395 -166q-162 0 -228.5 93.5t-66.5 279.5v520q0 27 -5 35t-28 12zM418 1237l317 336 l123 -123l-360 -289z" />
<glyph unicode="&#xfb;" horiz-adv-x="1284" d="M76 942l16 111h309v-662q0 -141 34 -202.5t126 -61.5q174 0 330 178v565q0 25 -5 33t-28 12l-102 27l16 111h305v-885q0 -41 29 -43l108 -14v-111h-288l-17 139l-4 2q-197 -166 -395 -166q-162 0 -228.5 93.5t-66.5 279.5v520q0 27 -5 35t-28 12zM274 1249l261 252h172 l260 -252l-90 -78l-256 207l-256 -207z" />
<glyph unicode="&#xfc;" horiz-adv-x="1284" d="M76 942l16 111h309v-662q0 -141 34 -202.5t126 -61.5q174 0 330 178v565q0 25 -5 33t-28 12l-102 27l16 111h305v-885q0 -41 29 -43l108 -14v-111h-288l-17 139l-4 2q-197 -166 -395 -166q-162 0 -228.5 93.5t-66.5 279.5v520q0 27 -5 35t-28 12zM299 1351.5 q0 51.5 31.5 82t83.5 30.5q53 0 83.5 -30.5t30.5 -82t-31.5 -82t-83 -30.5t-83 30.5t-31.5 82zM713 1351.5q0 51.5 30.5 82t84 30.5t84 -30.5t30.5 -82t-31.5 -82t-83 -30.5t-83 30.5t-31.5 82z" />
<glyph unicode="&#xfd;" horiz-adv-x="1191" d="M16 940l25 113h424v-113l-135 -16l272 -688l285 688l-139 16l22 113h406v-113l-70 -10q-39 -6 -51 -35l-498 -1198l199 -21v-110h-555v112l147 19q27 2 45 43l119 272l-369 873q-10 27 -43 35zM397 1237l318 336l123 -123l-361 -289z" />
<glyph unicode="&#xfe;" horiz-adv-x="1200" d="M49 1438l19 108h309v-610l4 -2q197 139 350 139q182 0 283.5 -124t101.5 -384q0 -111 -21.5 -210t-67.5 -187t-131 -140.5t-200 -52.5q-184 0 -319 117v-358q0 -25 5 -32t28 -9l192 -17v-110h-528v112l84 13q20 2 27.5 10t7.5 31v1624q0 35 -27 43zM379 260 q137 -129 283 -129q264 0 264 418q0 367 -246 366q-147 0 -301 -127v-528z" />
<glyph unicode="&#xff;" horiz-adv-x="1191" d="M16 940l25 113h424v-113l-135 -16l272 -688l285 688l-139 16l22 113h406v-113l-70 -10q-39 -6 -51 -35l-498 -1198l199 -21v-110h-555v112l147 19q27 2 45 43l119 272l-369 873q-10 27 -43 35zM279 1351.5q0 51.5 31.5 82t82.5 30.5q53 0 84 -30.5t31 -82t-32 -82 t-83 -30.5t-82.5 30.5t-31.5 82zM692 1351.5q0 51.5 31 82t84 30.5t84 -30.5t31 -82t-32 -82t-83 -30.5t-83 30.5t-32 82z" />
<glyph unicode="&#x152;" horiz-adv-x="2023" d="M102 750q0 168 35 303t108.5 239.5t198.5 160.5t293 56q109 0 205 -26h950v-338l-139 8l-29 158q-6 27 -34 26h-521q156 -164 166 -516h443v-147h-445q-16 -365 -182 -529h584q29 0 32 23l33 178h137v-346h-1024q-92 -25 -204 -25q-172 0 -293 56.5t-187.5 163t-96.5 242 t-30 313.5zM301 750q0 -307 100.5 -459t317.5 -152t318.5 149.5t101.5 463.5q0 594 -404 594q-211 0 -322.5 -154.5t-111.5 -441.5z" />
<glyph unicode="&#x153;" horiz-adv-x="1847" d="M82 530q0 250 128 396.5t378 146.5q287 0 397 -205q117 205 371 205q190 0 301.5 -117.5t111.5 -371.5q0 -33 -4 -103h-690q14 -348 316 -348q141 0 295 74l57 -139q-164 -92 -365 -93q-297 0 -401 213q-119 -213 -416 -213q-248 0 -363.5 148.5t-115.5 406.5zM276 528 q0 -403 302 -403q309 0 309 405q0 387 -295 388q-316 -1 -316 -390zM1079 623h502q-2 301 -235 301q-244 0 -267 -301z" />
<glyph unicode="&#x178;" horiz-adv-x="1267" d="M2 1372l21 111h458v-111l-153 -18l325 -613l316 613l-152 18l21 111h428v-111l-86 -22q-37 -10 -52 -39l-387 -731v-412q0 -25 5.5 -32t27.5 -9l205 -16v-111h-653v111l194 14q20 2 26.5 9t6.5 32v407l-410 742q-14 27 -49 35zM332 1714q0 51 31.5 81t82.5 30 q53 0 84 -30t31 -81t-30.5 -81.5t-84.5 -30.5q-51 0 -82.5 30.5t-31.5 81.5zM745 1714q0 51 31 81t84 30t84 -30t31 -81t-31 -81.5t-84 -30.5t-84 30.5t-31 81.5z" />
<glyph unicode="&#x2c6;" horiz-adv-x="1024" d="M166 1249l260 252h172l260 -252l-90 -78l-256 207l-256 -207z" />
<glyph unicode="&#x2dc;" horiz-adv-x="1024" d="M154 1260l59 90q55 86 123 86q25 0 86 -15q236 -61 254 -65q18 -6 31 6l73 76l90 -60l-47 -71q-68 -102 -131 -103q-39 0 -88 15q-41 10 -134 35.5t-118 31.5q-20 2 -33 -10l-79 -78z" />
<glyph unicode="&#x2000;" horiz-adv-x="964" />
<glyph unicode="&#x2001;" horiz-adv-x="1929" />
<glyph unicode="&#x2002;" horiz-adv-x="964" />
<glyph unicode="&#x2003;" horiz-adv-x="1929" />
<glyph unicode="&#x2004;" horiz-adv-x="643" />
<glyph unicode="&#x2005;" horiz-adv-x="482" />
<glyph unicode="&#x2006;" horiz-adv-x="321" />
<glyph unicode="&#x2007;" horiz-adv-x="321" />
<glyph unicode="&#x2008;" horiz-adv-x="241" />
<glyph unicode="&#x2009;" horiz-adv-x="385" />
<glyph unicode="&#x200a;" horiz-adv-x="107" />
<glyph unicode="&#x2010;" horiz-adv-x="636" d="M41 506v182h555v-182h-555z" />
<glyph unicode="&#x2011;" horiz-adv-x="636" d="M41 506v182h555v-182h-555z" />
<glyph unicode="&#x2012;" horiz-adv-x="636" d="M41 506v182h555v-182h-555z" />
<glyph unicode="&#x2013;" horiz-adv-x="1024" d="M0 506v141h1022v-141h-1022z" />
<glyph unicode="&#x2014;" horiz-adv-x="2048" d="M0 506v141h2046v-141h-2046z" />
<glyph unicode="&#x2018;" horiz-adv-x="368" d="M76 1253q0 37 30 99l105 207l90 -33l-55 -195q-4 -14 10 -20l63 -27l-40 -151q-104 4 -153.5 27t-49.5 93z" />
<glyph unicode="&#x2019;" horiz-adv-x="366" d="M63 1405l41 154q70 -4 108 -12.5t66.5 -35t28.5 -75.5q0 -43 -26 -97l-109 -206l-90 30l55 193q6 16 -8 22z" />
<glyph unicode="&#x201a;" horiz-adv-x="368" d="M70 23l41 153q70 -4 108.5 -12t67 -35t28.5 -76q0 -37 -30 -98l-105 -205l-90 31l55 192q6 16 -10 23z" />
<glyph unicode="&#x201c;" horiz-adv-x="675" d="M76 1253q0 37 30 99l105 207l90 -33l-55 -195q-4 -14 10 -20l63 -27l-40 -151q-104 4 -153.5 27t-49.5 93zM383 1253q0 37 31 99l104 207l90 -33l-55 -195q-4 -14 10 -20l64 -27l-41 -151q-104 4 -153.5 27t-49.5 93z" />
<glyph unicode="&#x201d;" horiz-adv-x="673" d="M63 1405l41 154q70 -4 108 -12.5t66.5 -35t28.5 -75.5q0 -43 -26 -97l-109 -206l-90 30l55 193q6 16 -8 22zM371 1405l41 154q70 -4 107.5 -12.5t66 -35t28.5 -75.5q0 -43 -26 -97l-109 -206l-90 30l55 193q6 16 -8 22z" />
<glyph unicode="&#x201e;" horiz-adv-x="675" d="M70 23l41 153q70 -4 108.5 -12t67 -35t28.5 -76q0 -37 -30 -98l-105 -205l-90 31l55 192q6 16 -10 23zM377 23l41 153q70 -4 108.5 -12t67.5 -35t29 -76q0 -37 -31 -98l-105 -205l-90 31l56 192q6 16 -11 23z" />
<glyph unicode="&#x2022;" horiz-adv-x="759" d="M98 573.5q0 135.5 73 205t208 69.5q137 0 210 -69.5t73 -205t-73 -205t-210 -69.5q-135 0 -208 69.5t-73 205z" />
<glyph unicode="&#x2026;" horiz-adv-x="1157" d="M70 104q0 129 135 129t135 -129t-135 -129t-135 129zM444 104q0 129 135.5 129t135.5 -129t-135.5 -129t-135.5 129zM819 104q0 129 135.5 129t135.5 -129t-135.5 -129t-135.5 129z" />
<glyph unicode="&#x202f;" horiz-adv-x="385" />
<glyph unicode="&#x2039;" horiz-adv-x="569" d="M117 530l182 306h168l-154 -281q-12 -20 -2 -39l152 -305h-168z" />
<glyph unicode="&#x203a;" horiz-adv-x="567" d="M102 211l152 291q12 20 2 39l-154 295h168l181 -314l-181 -311h-168z" />
<glyph unicode="&#x205f;" horiz-adv-x="482" />
<glyph unicode="&#x20ac;" horiz-adv-x="1087" d="M-2 444l25 127h135q-2 23 -2 74q0 45 2 68h-117l25 127h106q43 242 186.5 364.5t346.5 122.5q193 0 321 -70v-296l-131 8l-27 151q-6 27 -28 35q-57 20 -144 21q-129 0 -217 -83t-119 -253h412l-24 -127h-400v-37q0 -72 2 -105h379l-24 -127h-338q63 -319 327 -319 q98 0 146 20q23 6 26 35l27 152l131 8v-297q-47 -23 -143.5 -45.5t-196.5 -22.5q-442 0 -514 469h-172z" />
<glyph unicode="&#x2122;" horiz-adv-x="1699" d="M49 1276v207h656v-207h-76l-17 110h-176v-587l131 -11v-75h-372v75l120 11v587h-172l-18 -110h-76zM772 713v73l82 11v596l-82 10v80h203l237 -477l244 477h195v-80l-86 -10v-596l90 -11v-73h-299v73l98 11v456l-199 -374h-92l-194 376v-458l104 -11v-73h-301z" />
<glyph unicode="&#x25fc;" horiz-adv-x="1055" d="M0 0v1055h1055v-1055h-1055z" />
<glyph unicode="&#xfb01;" horiz-adv-x="1312" d="M82 0v111l127 18q14 2 21.5 5t11.5 11.5t4 24.5v721q0 20 -17 20h-147v142h164v153q0 197 105.5 280t361.5 83q78 0 123 -3t99 -16.5t84 -40t51.5 -75t23.5 -117.5l-176 -23q-2 90 -41 113t-172 23q-164 0 -218.5 -47.5t-54.5 -168.5v-139q0 -23 21 -22h659v-887 q0 -25 5 -32t28 -9l131 -14v-111h-518v113l135 12q20 2 26.5 9t6.5 32v715q0 31 -29 30h-465v-741q0 -27 5 -32t28 -9l162 -18v-111h-545z" />
<glyph unicode="&#xfb02;" horiz-adv-x="1312" d="M82 0v111l127 18q14 2 21.5 5t11.5 11.5t4 24.5v721q0 20 -17 20h-147v142h164v153q0 197 105.5 280t361.5 83q82 0 132 -4t107.5 -18.5t88 -43t51 -80t20.5 -125.5v-1132q0 -25 5 -32t28 -9l123 -14v-111h-502v113l127 12q20 2 26.5 9t6.5 32v1114q0 98 -46 124t-175 26 q-164 0 -218.5 -47.5t-54.5 -168.5v-139q0 -23 21 -22h301v-142h-322v-741q0 -27 5 -32t28 -9l162 -18v-111h-545z" />
<glyph unicode="&#xfb03;" horiz-adv-x="1992" d="M82 0v113l131 14q20 2 26.5 9t6.5 32v723q0 20 -17 20h-147v142h164v151q0 160 106.5 247t317.5 87q209 0 313 -100q98 131 410 131q78 0 123 -3t99 -16.5t84 -40t51.5 -75t23.5 -117.5l-177 -23q-2 90 -40.5 113t-172.5 23q-164 0 -218 -47.5t-54 -168.5v-139 q0 -23 21 -22h659v-887q0 -25 5 -32t28 -9l131 -14v-111h-518v113l135 12q20 2 26.5 9t6.5 32v715q0 31 -29 30h-465v-741q0 -27 5 -32t28 -9l162 -18v-111h-545v111l127 18q14 2 21 5t11.5 11.5t4.5 24.5v721q0 20 -17 20h-477v-743q0 -25 5 -32t26 -9l176 -16v-111h-557z M432 1073q0 -20 17 -20h477v153q0 98 -55.5 144.5t-196.5 46.5q-133 0 -187.5 -52.5t-54.5 -152.5v-119z" />
<glyph unicode="&#xfb04;" horiz-adv-x="1992" d="M82 0v113l131 14q20 2 26.5 9t6.5 32v723q0 20 -17 20h-147v142h164v151q0 160 106.5 247t317.5 87q209 0 313 -100q55 72 151.5 101.5t258.5 29.5q82 0 132 -4t107.5 -18.5t88 -43t51 -80t20.5 -125.5v-1132q0 -25 5 -32t28 -9l123 -14v-111h-502v113l127 12 q20 2 26.5 9t6.5 32v1114q0 98 -46.5 124t-175.5 26q-164 0 -218 -47.5t-54 -168.5v-139q0 -23 21 -22h301v-142h-322v-741q0 -27 5 -32t28 -9l162 -18v-111h-545v111l127 18q14 2 21.5 5t11.5 11.5t4 24.5v721q0 20 -17 20h-477v-743q0 -25 5 -32t26 -9l176 -16v-111h-557z M432 1073q0 -20 17 -20h477v153q0 96 -56.5 143.5t-195.5 47.5q-133 0 -187.5 -52.5t-54.5 -152.5v-119z" />
</font>
</defs>
</svg>
